<svg xmlns="http://www.w3.org/2000/svg" viewBox="0 0 172 172"><g fill="none" stroke-miterlimit="10" font-family="none" font-weight="none" font-size="none" text-anchor="none" style="mix-blend-mode:normal"><path d="M0 172V0h172v172z"/><path d="M136.167 42.258V17.917a3.585 3.585 0 00-3.584-3.584h-24.341c-1.595 0-2.397 1.932-1.269 3.06l26.134 26.134c1.128 1.125 3.06.326 3.06-1.269z" fill="#2561ea"/><path d="M161.25 154.083H10.75a3.585 3.585 0 01-3.583-3.583V86a3.585 3.585 0 013.583-3.583h150.5A3.585 3.585 0 01164.833 86v64.5a3.585 3.585 0 01-3.583 3.583z" fill="#61e3a7"/><path d="M25.083 82.417v71.666h121.834V82.417zm43 60.916C54.23 143.333 43 132.103 43 118.25c0-13.853 11.23-25.083 25.083-25.083 13.854 0 25.084 11.23 25.084 25.083 0 13.853-11.23 25.083-25.084 25.083zm66.292 0a5.377 5.377 0 01-5.375-5.375 5.377 5.377 0 015.375-5.375 5.377 5.377 0 015.375 5.375 5.377 5.377 0 01-5.375 5.375zm-14.333 0a5.377 5.377 0 01-5.375-5.375 5.377 5.377 0 015.375-5.375 5.377 5.377 0 015.375 5.375 5.377 5.377 0 01-5.375 5.375z" fill="#33c481"/><path d="M88.1 62.4L68.083 42.384 47.017 63.45a3.58 3.58 0 01-5.067 0l-5.067-5.067a3.58 3.58 0 010-5.067l26.133-26.133a7.165 7.165 0 0110.134 0L93.167 47.2l23.6-23.6L126.9 33.734 98.233 62.4a7.165 7.165 0 01-10.133 0z" fill="#2561ea"/></g></svg>